<?xml version="1.0" ?><svg viewBox="0 0 64 64" xmlns="http://www.w3.org/2000/svg"><defs><style>.cls-1{fill:#694a2b;}.cls-2{fill:#8c6239;}.cls-3{fill:#d1c0b0;}.cls-4{fill:#9ce5f4;}.cls-5{fill:#b6db38;}.cls-6{fill:#c5e260;}.cls-7{fill:none;stroke:#000;stroke-linejoin:round;stroke-width:2px;}</style></defs><title/><g data-name="Layer 30" id="Layer_30"><rect class="cls-1" height="60" rx="4" ry="4" width="60" x="2" y="2"/><rect class="cls-2" height="60" rx="4" ry="4" width="57" x="2" y="2"/><rect class="cls-3" height="32" rx="10" ry="10" width="21" x="35" y="26"/><rect class="cls-3" height="32" rx="10" ry="10" width="21" x="8" y="26"/><rect class="cls-4" height="14" width="36" x="14" y="6"/><path class="cls-5" d="M18,20h0A10,10,0,0,1,28,10h8A10,10,0,0,1,46,20h0"/><path class="cls-6" d="M33,10H28A10,10,0,0,0,18,20H43A10,10,0,0,0,33,10Z"/><rect class="cls-7" height="60" rx="4" ry="4" width="60" x="2" y="2"/><rect class="cls-7" height="32" rx="10" ry="10" width="21" x="8" y="26"/><rect class="cls-7" height="32" rx="10" ry="10" width="21" x="35" y="26"/><rect class="cls-7" height="14" width="36" x="14" y="6"/><line class="cls-7" x1="32" x2="26" y1="20" y2="14"/><path class="cls-7" d="M18,20h0A10,10,0,0,1,28,10h8A10,10,0,0,1,46,20h0"/><line class="cls-7" x1="58" x2="58" y1="5" y2="7"/><line class="cls-7" x1="58" x2="58" y1="57" y2="59"/><line class="cls-7" x1="6" x2="6" y1="57" y2="59"/><line class="cls-7" x1="6" x2="6" y1="5" y2="7"/><line class="cls-7" x1="50" x2="35" y1="27" y2="42"/><line class="cls-7" x1="54" x2="35" y1="30" y2="49"/><line class="cls-7" x1="56" x2="37" y1="35" y2="54"/><line class="cls-7" x1="56" x2="41" y1="42" y2="57"/><line class="cls-7" x1="56" x2="46" y1="48" y2="58"/><line class="cls-7" x1="45" x2="35" y1="26" y2="36"/><line class="cls-7" x1="23" x2="8" y1="27" y2="42"/><line class="cls-7" x1="27" x2="8" y1="30" y2="49"/><line class="cls-7" x1="29" x2="10" y1="35" y2="54"/><line class="cls-7" x1="29" x2="14" y1="42" y2="57"/><line class="cls-7" x1="29" x2="19" y1="48" y2="58"/><line class="cls-7" x1="18" x2="8" y1="26" y2="36"/></g></svg>