<svg xmlns="http://www.w3.org/2000/svg" xmlns:xlink="http://www.w3.org/1999/xlink" data-name="Layer 1" width="1071" height="642" style=""><rect id="backgroundrect" width="100%" height="100%" x="0" y="0" fill="none" stroke="none"/><defs><linearGradient id="8608c656-43fd-4907-84f3-eb091890c985" x1="0.49998417496681213" y1="0.9999540448188782" x2="0.49998417496681213" y2="-0.00010410141112515703"><stop offset="0" stop-color="gray" stop-opacity="0.25"/><stop offset="0.54" stop-color="gray" stop-opacity="0.12"/><stop offset="1" stop-color="gray" stop-opacity="0.1"/></linearGradient></defs><title>relaxing at home</title><g class="currentLayer" style=""><title>Layer 1</title><ellipse cx="571.5800170898438" cy="506.3699951171875" rx="422.55999755859375" ry="46.650001525878906" fill="#71c55d" opacity="0.1" id="svg_6" class=""/><path d="M659.4299996948242,174.45999984741212 V321.1599998474121 a27.2,27.2 0 0 1 -1,7.37 a27.66,27.66 0 0 1 -26.66,20.3 h-124 A27.66,27.66 0 0 1 480.0999996948242,321.1599998474121 V174.45999984741212 a27.66,27.66 0 0 1 27.67,-27.67 h124 a27.66,27.66 0 0 1 26.66,20.3 A27.2,27.2 0 0 1 659.4299996948242,174.45999984741212 z" fill="#e9ccdb" id="svg_7" class=""/><path d="M482.0999996948242,174.45999984741212 V321.1599998474121 a27.62,27.62 0 0 1 -1,7.38 a27.62,27.62 0 0 1 -1,-7.38 V174.45999984741212 a27.62,27.62 0 0 1 1,-7.38 A27.62,27.62 0 0 1 482.0999996948242,174.45999984741212 z" opacity="0.1" id="svg_8" class=""/><rect x="262.77001953125" y="146.79000854492188" width="217.3300018310547" height="202" rx="27.670000076293945" ry="27.670000076293945" fill="#e9ccdb" id="svg_9" class=""/><path d="M659.4299996948242,174.45999984741212 V321.1599998474121 a27.2,27.2 0 0 1 -1,7.37 a27.6,27.6 0 0 1 -1,-7.37 V174.45999984741212 a27.6,27.6 0 0 1 1,-7.37 A27.2,27.2 0 0 1 659.4299996948242,174.45999984741212 z" opacity="0.1" id="svg_10" class=""/><rect x="659.4299926757812" y="146.79000854492188" width="217.33999633789062" height="202" rx="27.670000076293945" ry="27.670000076293945" fill="#e9ccdb" id="svg_11" class=""/><path d="M469.0999996948242,363.7899998474121 H270.5699996948242 l-1,-17.35 c-1.1,-19.48 24.08,-35.65 55.53,-35.65 H460.2199996948242 c10.55,0 18.69,5.74 17.34,12.22 z" opacity="0.1" id="svg_12" class=""/><path d="M469.0999996948242,365.7899998474121 H270.5699996948242 l-1,-17.35 c-1.1,-19.48 24.08,-35.65 55.53,-35.65 H460.2199996948242 c10.55,0 18.69,5.74 17.34,12.22 z" fill="#caa4bc" id="svg_13" class=""/><path d="M668.0399996948242,364.9399998474121 H866.5699996948242 l1,-17.35 c1.1,-19.48 -24.08,-35.65 -55.53,-35.65 H676.9199996948242 c-10.54,0 -18.69,5.74 -17.34,12.22 z" opacity="0.1" id="svg_14" class=""/><path d="M668.0399996948242,366.9399998474121 H866.5699996948242 l1,-17.35 c1.1,-19.48 -24.08,-35.65 -55.53,-35.65 H676.9199996948242 c-10.54,0 -18.69,5.74 -17.34,12.22 z" fill="#caa4bc" id="svg_15" class=""/><path d="M503.48,311.94000000000005 H638 a28.59,28.59 0 0 1 28.59,28.59 v17.76 a0,0 0 0 1 0,0 H472.1 a0,0 0 0 1 0,0 v-15 A31.37,31.37 0 0 1 503.48,311.94000000000005 z" opacity="0.1" id="svg_16" class=""/><path d="M503.48,313.94000000000005 H638 a28.59,28.59 0 0 1 28.59,28.59 v17.76 a0,0 0 0 1 0,0 H472.1 a0,0 0 0 1 0,0 v-15 A31.37,31.37 0 0 1 503.48,313.94000000000005 z" fill="#caa4bc" id="svg_17" class=""/><path d="M284.13,331.78999999999996 h161 a27,27 0 0 1 27,27 v36.5 a0,0 0 0 1 0,0 H272.15999999999997 a0,0 0 0 1 0,0 V343.76 A12,12 0 0 1 284.13,331.78999999999996 z" fill="#e9ccdb" id="svg_18" class=""/><path d="M492.1,331.78999999999996 h153 a27,27 0 0 1 27,27 v36.5 a0,0 0 0 1 0,0 H466.61 a0,0 0 0 1 0,0 v-38 A25.5,25.5 0 0 1 492.1,331.78999999999996 z" opacity="0.1" id="svg_19" class=""/><path d="M496.1,331.78999999999996 h153 a27,27 0 0 1 27,27 v36.5 a0,0 0 0 1 0,0 H470.61 a0,0 0 0 1 0,0 v-38 A25.5,25.5 0 0 1 496.1,331.78999999999996 z" opacity="0.1" id="svg_20" class=""/><path d="M494.1,331.78999999999996 h153 a27,27 0 0 1 27,27 v36.5 a0,0 0 0 1 0,0 H468.61 a0,0 0 0 1 0,0 v-38 A25.5,25.5 0 0 1 494.1,331.78999999999996 z" fill="#e9ccdb" id="svg_21" class=""/><path d="M680.38,331.78999999999996 H843.85 a25.75,25.75 0 0 1 25.75,25.75 v37.75 a0,0 0 0 1 0,0 H669.66 a0,0 0 0 1 0,0 V342.51 A10.72,10.72 0 0 1 680.38,331.78999999999996 z" opacity="0.1" id="svg_22" class=""/><path d="M682.38,331.78999999999996 H845.85 a25.75,25.75 0 0 1 25.75,25.75 v37.75 a0,0 0 0 1 0,0 H671.66 a0,0 0 0 1 0,0 V342.51 a10.72,10.72 0 0 1 10.72,-10.72 z" fill="#e9ccdb" id="svg_23" class=""/><path d="M275.0999996948242,479.7899998474121 v27.25 a13.76,13.76 0 0 1 -13.75,13.75 h-9.5 a13.76,13.76 0 0 1 -13.75,-13.75 V479.7899998474121 z" fill="#9c7aa5" id="svg_24" class=""/><path d="M904.5699996948242,479.7899998474121 v27.25 a13.76,13.76 0 0 1 -13.75,13.75 h-9.5 A13.76,13.76 0 0 1 867.5699996948242,507.0399998474121 V479.7899998474121 z" fill="#9c7aa5" id="svg_25" class=""/><path d="M285.1899996948242,300.9399998474121 a36.5,36.5 0 1 0 -43.56,35.81 V484.2899998474121 h41 V314.4099998474121 A36.52,36.52 0 0 0 285.1899996948242,300.9399998474121 z" fill="#e9ccdb" id="svg_26" class=""/><path d="M856.0099996948243,300.9399998474121 A36.5,36.5 0 1 1 899.5699996948242,336.74999984741214 V484.2899998474121 H858.5699996948242 V314.4099998474121 A36.52,36.52 0 0 1 856.0099996948243,300.9399998474121 z" fill="#e9ccdb" id="svg_27" class=""/><path d="M285.1899996948242,300.9399998474121 a36.5,36.5 0 1 0 -43.56,35.81 V484.2899998474121 h41 V314.4099998474121 A36.52,36.52 0 0 0 285.1899996948242,300.9399998474121 z" opacity="0.1" id="svg_28" class=""/><path d="M856.0099996948243,300.9399998474121 A36.5,36.5 0 1 1 899.5699996948242,336.74999984741214 V484.2899998474121 H858.5699996948242 V314.4099998474121 A36.52,36.52 0 0 1 856.0099996948243,300.9399998474121 z" opacity="0.1" id="svg_29" class=""/><rect x="262.77001953125" y="458.78997802734375" width="617.8300170898438" height="28.5" fill="#9c7aa5" id="svg_30" class=""/><rect x="269.5899963378906" y="395.28997802734375" width="607.1799926757812" height="65.5" opacity="0.1" id="svg_31" class=""/><rect x="269.5899963378906" y="393.28997802734375" width="607.1799926757812" height="65.5" fill="#caa4bc" id="svg_32" class=""/><rect x="867.6199951171875" y="479.78997802734375" width="36.939998626708984" height="9.5" opacity="0.1" id="svg_33" class=""/><path d="M865.0399996948242,303.9399998474121 A36.5,36.5 0 1 1 908.5699996948242,339.74999984741214 V487.2899998474121 h-41 V317.4099998474121 A36.32,36.32 0 0 1 865.0399996948242,303.9399998474121 z" fill="#e9ccdb" id="svg_34" class=""/><rect x="238.10000610351562" y="479.78997802734375" width="36.47999954223633" height="9.5" opacity="0.1" id="svg_35" class=""/><path d="M277.1599996948242,303.9399998474121 A36.5,36.5 0 1 0 233.56999969482422,339.74999984741214 V487.2899998474121 h41 V317.4099998474121 A36.32,36.32 0 0 0 277.1599996948242,303.9399998474121 z" fill="#e9ccdb" id="svg_36" class=""/><rect x="282.6199951171875" y="393.28997802734375" width="576.1500244140625" height="1.8300000429153442" opacity="0.1" id="svg_37" class=""/><circle cx="238.10000610351562" cy="302.78997802734375" r="16.5" fill="#caa4bc" id="svg_38" class=""/><circle cx="904.5599975585938" cy="302.78997802734375" r="16.5" fill="#caa4bc" id="svg_39" class=""/><path d="M412.61999969482423,274.8999998474121 c-15.72,-3.93 -48.91,-45.37 -48.91,-45.37 c-12.48,-8.72 -37.93,-61.54 -37.93,-61.54 s-9.66,-4.55 -18.17,15.91 s-58,36.82 -72.82,39.11 c-8.35,1.29 -7.54,5 -5.24,8 a13.28,13.28 0 0 0 5.94,4.2 c6.3,2.39 25.85,25.86 25.85,25.86 c18.23,12.32 38.45,69.23 45.17,84.1 c3.73,8.27 7.88,4.3100000000000005 10.84,-0.8400000000000006 a78.4,78.4 0 0 1 22.93,-25.1 c25.44,-17.89 52.71,-25.31 54.57,-25.34 C397.1999996948242,293.82999984741207 428.3399996948242,278.82999984741207 412.61999969482423,274.8999998474121 z" opacity="0.1" id="svg_40" class=""/><path d="M203.6399996948242,226.1599998474121 a15.42,15.42 0 0 1 -6.55,-4.76 c-2.63,-3.37 -3.75,-7.55 5,-9 c15.44,-2.54 66.46,-20.81 74,-43.86 s18,-17.89 18,-17.89 S324.5699996948242,210.26999984741212 338.3299996948242,220.1599998474121 c0,0 37.86,46.83 54.69,51.32 s-14.92,21.29 -17.39,21.33 c-2,0 -30.17,8.31 -55.72,28.39 a78.84,78.84 0 0 0 -22.41,28.23 c-2.7600000000000002,5.8 -6.86,10.25 -11.37,0.92 c-8.11,-16.79 -33.39,-81 -53.45,-95 C232.67999969482423,255.34999984741216 210.43999969482422,228.81999984741213 203.6399996948242,226.1599998474121 z" fill="#71c55d" id="svg_41" class=""/><path d="M203.6399996948242,226.1599998474121 a15.42,15.42 0 0 1 -6.55,-4.76 c-2.63,-3.37 -3.75,-7.55 5,-9 c15.44,-2.54 66.46,-20.81 74,-43.86 s18,-17.89 18,-17.89 S324.5699996948242,210.26999984741212 338.3299996948242,220.1599998474121 c0,0 37.86,46.83 54.69,51.32 s-14.92,21.29 -17.39,21.33 c-2,0 -30.17,8.31 -55.72,28.39 a78.84,78.84 0 0 0 -22.41,28.23 c-2.7600000000000002,5.8 -6.86,10.25 -11.37,0.92 c-8.11,-16.79 -33.39,-81 -53.45,-95 C232.67999969482423,255.34999984741216 210.43999969482422,228.81999984741213 203.6399996948242,226.1599998474121 z" opacity="0.1" id="svg_42" class=""/><path d="M214.4899996948242,224.9199998474121 a13.81,13.81 0 0 1 -6.1,-4.25 c-2.43,-3 -3.42,-6.84 4.8100000000000005,-8.28 c14.59,-2.56 63,-20 70.44,-41.21 s17.28,-16.62 17.28,-16.62 s27.84,54 40.66,62.86 c0,0 35,42.22 50.79,46.07 S377.97999969482424,283.1599998474121 375.6499996948242,283.24999984741214 c-1.85,0.06000000000000006 -28.57,8 -53,26.79 A75.84,75.84 0 0 0 301.11999969482423,336.1599998474121 c-2.6900000000000004,5.34 -6.63,9.47 -10.74,1 c-7.39,-15.23 -30.25,-73.56 -48.95,-86 C241.42999969482423,251.1599998474121 220.8599996948242,227.2899998474121 214.4899996948242,224.9199998474121 z" fill="#71c55d" id="svg_43" class=""/><path d="M270.5699996948242,244.00999984741213 s-5.24,4.93 19.82,-4.52 S270.5699996948242,244.00999984741213 270.5699996948242,244.00999984741213 z" opacity="0.1" id="svg_44" class=""/><path d="M291.1399996948242,268.0599998474121 s3.8200000000000003,0.55 18.19,-5.32 S291.1399996948242,268.0599998474121 291.1399996948242,268.0599998474121 z" opacity="0.1" id="svg_45" class=""/><path d="M289.8799996948242,312.21999984741205 s3.5700000000000003,0 17.91,-5.94 S289.8799996948242,312.21999984741205 289.8799996948242,312.21999984741205 z" opacity="0.1" id="svg_46" class=""/><path d="M874.7699996948243,213.3599998474121 v19.08 c-4.12,8.52 -8.15,19.4 -8.15,19.4 c-12,15.620000000000001 -10.1,67.66 -10.89,81.71 c-0.44000000000000034,7.8 -5.55,5.94 -10,2.74 a79.09,79.09 0 0 0 -29.34,-12.93 c-29,-6.35 -56,-3.71 -57.72,-3.15 c-2.12,0.7000000000000006 -35.24,-1.53 -22.56,-9.64 s27.84,-51.8 27.84,-51.8 c8.11,-10.92 12.34,-61.32 12.34,-61.32 s7,-6.69 21.85,7 C812.2299996948242,217.57999984741213 858.2699996948243,215.9799998474121 874.7699996948243,213.3599998474121 z" opacity="0.1" id="svg_47" class=""/><path d="M885.6799996948242,219.95999984741212 a11.41,11.41 0 0 0 3.84,-5.24 c1,-3.12 0.44000000000000034,-6.35 -7.49,-4.76 c-14.05,2.8200000000000003 -64.09,5.29 -78.89,-8.45 s-21.85,-7.05 -21.85,-7.05 s-4.23,50.39 -12.34,61.32 c0,0 -15.15,43.69 -27.84,51.8 s20.44,10.34 22.56,9.63 c1.6800000000000006,-0.56 28.68,-3.19 57.72,3.16 a79.23,79.23 0 0 1 29.34,12.92 c4.45,3.2 9.56,5.07 10,-2.74 c0.79,-14 -1.09,-66.08 10.89,-81.7 C871.6199996948242,248.8499998474121 880.8799996948242,223.8599998474121 885.6799996948242,219.95999984741212 z" fill="#71c55d" id="svg_48" class=""/><path d="M885.6799996948242,219.95999984741212 a11.41,11.41 0 0 0 3.84,-5.24 c1,-3.12 0.44000000000000034,-6.35 -7.49,-4.76 c-14.05,2.8200000000000003 -64.09,5.29 -78.89,-8.45 s-21.85,-7.05 -21.85,-7.05 s-4.23,50.39 -12.34,61.32 c0,0 -15.15,43.69 -27.84,51.8 s20.44,10.34 22.56,9.63 c1.6800000000000006,-0.56 28.68,-3.19 57.72,3.16 a79.23,79.23 0 0 1 29.34,12.92 c4.45,3.2 9.56,5.07 10,-2.74 c0.79,-14 -1.09,-66.08 10.89,-81.7 C871.6199996948242,248.8499998474121 880.8799996948242,223.8599998474121 885.6799996948242,219.95999984741212 z" opacity="0.1" id="svg_49" class=""/><path d="M882.0599996948242,222.20999984741212 a10.84,10.84 0 0 0 3.64,-5 c1,-3 0.4200000000000003,-6 -7.1,-4.51 c-13.35,2.67 -60.86,5 -74.91,-8 s-20.75,-6.69 -20.75,-6.69 s-4,47.84 -11.71,58.21 c0,0 -14.38,41.49 -26.43,49.19 s19.41,9.81 21.41,9.14 c1.6,-0.53 27.24,-3 54.81,3 a74.94,74.94 0 0 1 27.85,12.27 c4.23,3 9.08,4.8100000000000005 9.5,-2.6 c0.7500000000000007,-13.34 -1,-62.74 10.34,-77.58 C868.7099996948242,249.62999984741214 877.4999996948242,225.9099998474121 882.0599996948242,222.20999984741212 z" fill="#71c55d" id="svg_50" class=""/><path d="M846.8499996948242,249.7899998474121 s-3.5,2 -20.25,7.75 S844.0999996948242,255.2899998474121 846.8499996948242,249.7899998474121 z" opacity="0.1" id="svg_51" class=""/><path d="M845.0999996948242,267.4399998474121 s-10.5,8.6 -15.75,9.35 S842.0999996948242,275.83999984741206 845.0999996948242,267.4399998474121 z" opacity="0.1" id="svg_52" class=""/><path d="M853.4499996948242,307.1599998474121 s-10.5,8.6 -15.75,9.35 S850.4499996948242,315.57999984741207 853.4499996948242,307.1599998474121 z" opacity="0.1" id="svg_53" class=""/><path d="M694.2099996948242,314.37999984741214 a22.66,22.66 0 0 1 -4.4,-0.6300000000000007 c-0.1,-0.4700000000000003 -0.9,-0.79 -2.59,-0.8600000000000007 l-0.34000000000000047,0 a35.64,35.64 0 0 1 -13.620000000000001,-9.26 c-4.82,-5.3 -18.46,-11.93 -18.46,-11.93 s-9.64,-8.13 -16,-8.79 s-23.94,-18.4 -38.9,-34.82 s-38.08,-34.32 -38.08,-34.32 l-9.81,-10.94 S540.5699996948242,194.6799998474121 537.9199996948242,190.1599998474121 c-1.45,-2.45 -6,-3.71 -10.66,-4.15 c-5,-2 -13.25,-2 -17.1,-1.1600000000000001 c-2.35,0.53 -8.85,6.68 -15.25,13.23 l5.26,-67.5 a4.15,4.15 0 0 0 -2.9,-4.28 L479.5699996948242,134.9299998474121 a4,4 0 0 0 -2.25,3.34 L472.5699996948242,210.7299998474121 L451.66999969482424,226.00999984741213 a15.85,15.85 0 0 0 -3.2,-7 c-11.72,-15.28 -29.94,13.71 -36.73,25.84 c-0.3200000000000004,0 -0.6300000000000007,0.1 -0.92,0.17 a2.42,2.42 0 0 1 -0.6100000000000007,0.9400000000000006 A86.69,86.69 0 0 1 395.5699996948242,236.9299998474121 a4.82,4.82 0 0 1 -0.79,-1.18 c-1,-2.49 -4.93,-6.77 -7.2,-9.14 c-6.9,-7.77 -17.19,-18.18 -18.66,-18.84 c-0.78,-0.34000000000000047 -4.47,-3.17 -9.05,-6.76 a46.73,46.73 0 0 0 -2.34,-4.43 c-3.26,-5.4 -8.82,-7 -12.71,-7.43 c-3.6,-2.8 -6.35,-4.8900000000000015 -7.08,-5.25 c-2.49,-1.24 -8.23,-10.2 -11,-15.92 s-22.9,-6.46 -22.9,-6.46 a46.93,46.93 0 0 1 5.3,-22.6 c0.21000000000000016,-0.4 0.4100000000000003,-0.79 0.6200000000000007,-1.17 a36.43,36.43 0 0 0 24.25,-46.88 c2.58,-0.91 5.73,-0.51 8.44,-1.46 c3.64,-1.27 6.94,-4.21 7.5,-8 A11.72,11.72 0 0 0 348.2699996948242,74.15999984741211 a24,24 0 0 0 -4.59,-5.8100000000000005 c-4.94,-5.18 -12.05,-8.37 -19,-10.76 c-8.81,-3 -18.06,-5.3100000000000005 -27.37,-4.8 S278.5699996948242,56.87999984741214 272.5699996948242,63.9799998474121 a20.42,20.42 0 0 1 -3.73,3.92 c-2.14,1.46 -4.88,1.7000000000000002 -7.47,1.6 c-8.54,-0.31000000000000033 -17.46,-3.68 -25.34,-0.38000000000000034 c-9.47,4 -12.78,15.54 -14,25.71 c-1.27,10.47 -1.58,21.12 -4.35,31.29 s-8.48,20.11 -17.76,25.16 c-2.71,1.47 -5.67,2.5 -8.22,4.24 s-4.72,4.44 -4.73,7.52 c0,4.2 3.77,7.29 5.74,11 c1,1.8900000000000001 1.58,4.05 2.5700000000000003,5.91 h0 c0.1,0.19000000000000017 0.2,0.37000000000000033 0.31000000000000033,0.55 l0.06000000000000006,0.1 c0.09000000000000014,0.14 0.18000000000000016,0.28 0.28,0.4200000000000003 a0.7100000000000006,0.7100000000000006 0 0 0 0.1,0.14 l0.28,0.38000000000000034 a1.71,1.71 0 0 1 0.11000000000000008,0.14 c0.14,0.16000000000000023 0.28,0.3200000000000004 0.4300000000000003,0.4700000000000003 s0.3600000000000003,0.34000000000000047 0.55,0.4900000000000003 s0.2900000000000003,0.34000000000000047 0.45,0.5 c4.29,4.33 11.91,1.8800000000000003 17.41,4.51 a12.06,12.06 0 0 1 2.87,2 c1.84,2 3.3200000000000003,4.47 5,6.69 l0.1,0.12000000000000002 l0.52,0.6600000000000009 l0.27,0.31000000000000033 c0.12000000000000002,0.15000000000000016 0.25,0.3000000000000003 0.38000000000000034,0.44000000000000034 s0.46,0.5 0.690000000000001,0.7300000000000006 l0.45,0.4100000000000003 c0.18000000000000016,0.2 0.3600000000000003,0.4 0.55,0.5900000000000006 c4.52,4.5 11.2,6.07 17.58,6.51 c3.49,0.23 7.1,0.17 10.33,-1.19 a13.88,13.88 0 0 0 4,-2.6 a39.69,39.69 0 0 0 6,3.88 c5.26,3.44 11.09,6.65 16.59,10.3 c5.73,5.45 12.67,13.18 12.76,18.81 c0.13,7.47 10.4,22.14 15,28.32 c0.23,1.23 0.3300000000000004,1.9300000000000002 0.3300000000000004,1.9300000000000002 l21.11,31.09 s1.58,4.85 9.82,5.12 c-1.52,9.36 -1,25.82 6.3100000000000005,27.54 c8.48,2 22.28,0.3300000000000004 24.28,2.8200000000000003 s34.91,-1.33 34.91,-1.33 s18.29,-4.14 30.43,-0.4900000000000003 a33.82,33.82 0 0 0 22.77,-1.6600000000000001 s13.12,-1.24 14.82,-6.37 a3.94,3.94 0 0 0 0.6500000000000008,-1.59 a6.93,6.93 0 0 1 0.44000000000000034,-1.6300000000000003 c1.32,-2.15 3.37,-2.7800000000000002 2.6,-3.26 c1,-0.8600000000000007 1.21,-1.06 -1.8800000000000003,-1.58 a17,17 0 0 0 -6.15,0.21000000000000016 q1.11,-1.12 2.19,-2.37 a12.46,12.46 0 0 0 1.3800000000000001,0 c4.59,0.26 4.27,-1.73 8.56,-2.8 c5,-1.24 10,-1.7400000000000002 16.46,-2.49 s13.22,-4.47 16,-8 s14.46,-1.5 17.7,-7.47 c2.7800000000000002,-5.1 -7.05,-9.48 -12.29,-9.08 a6.17,6.17 0 0 0 -3.67,0.6300000000000007 c-3.08,2 -14.13,2.92 -17.92,3.16 c-0.8300000000000006,-0.3000000000000003 -4.17,-1.45 -8.1,-2.45 c3.4,-5.57 8.16,-13.16 12.47,-19.28 c7.82,-11.11 12.47,-15.09 12.47,-15.09 a27.84,27.84 0 0 1 6,-6.85 c5.85,14.82 40.37,39.63 57,42.5 c18.29,3.15 36.25,18.07 36.25,18.07 s-1.6600000000000001,7 -1.6600000000000001,10 c0,1.34 3.3200000000000003,2 7.49,2.33 c2.8,2.1 16.39,1.87 21.6,1 c5.82,-1 22.28,3.15 35.75,4 S702.3499996948242,314.70999984741206 694.2099996948242,314.37999984741214 z" fill="url(#8608c656-43fd-4907-84f3-eb091890c985)" id="svg_54" class=""/><path d="M361.97999969482424,201.0599998474121 l-1.25,15.88 l7.71,16.72 l10.9,9.6 l11.86,7 l11,7.66 l11,-9.88 s-16.11,-10.34 -17.55,-13.85 s-8.68,-10.620000000000001 -8.68,-10.620000000000001 l-10.22,-9.88 l-8.3,-7.57 z" fill="#fd6f8d" id="svg_55" class=""/><path d="M361.97999969482424,201.0599998474121 l-1.25,15.88 l7.71,16.72 l10.9,9.6 l11.86,7 l11,7.66 l11,-9.88 s-16.11,-10.34 -17.55,-13.85 s-8.68,-10.620000000000001 -8.68,-10.620000000000001 l-10.22,-9.88 l-8.3,-7.57 z" opacity="0.1" id="svg_56" class=""/><path d="M312.0599996948242,139.4099998474121 c-4,7.84 -7.38,19.36 -3.52,32.35 c7.14,24 -45.2,-9.58 -45.2,-9.58 s11.28,-16.84 14.58,-31.38 c1.07,-4.71 1.3,-9.19 0,-12.77 c-5.19,-14.61 41.23,10.71 41.23,10.71 A49.87,49.87 0 0 0 312.0599996948242,139.4099998474121 z" fill="#ffbec5" id="svg_57" class=""/><path d="M305.4099996948242,161.5299998474121 s19.69,0.7300000000000006 22.37,6.33 s8.27,14.37 10.71,15.59 s28.24,22.4 30.43,23.37 s24.35,24.1 24.35,26.54 s22.89,16.56 37.5,18.75 s37,28.49 43.58,27.51 s20,3.9 20,3.9 s15.1,-0.7300000000000006 18.75,-3.17 s17.28,2.44 14.12,8.28 s-14.61,3.9 -17.29,7.3100000000000005 s-9.25,7.06 -15.58,7.79 s-11.2,1.21 -16.07,2.43 s-3.6500000000000004,3.6500000000000004 -11,2.44 s-35.79,-51.87 -35.79,-51.87 l-31.65,-14.36 s-11.93,-9.74 -12.91,-12.91 s-23.86,-24.83 -23.86,-24.83 l-29.95,-21.92 z" opacity="0.1" id="svg_58" class=""/><path d="M306.86999969482423,161.5299998474121 s19.69,0.7300000000000006 22.37,6.33 s8.28,14.37 10.71,15.59 s28.24,22.4 30.44,23.37 s24.34,24.1 24.34,26.54 s22.89,16.56 37.5,18.75 s37,28.49 43.58,27.51 s20,3.9 20,3.9 s15.1,-0.7300000000000006 18.75,-3.17 s17.29,2.44 14.12,8.28 s-14.61,3.9 -17.29,7.3100000000000005 s-9.25,7.06 -15.58,7.79 S484.5699996948242,304.9399998474121 479.7099996948242,306.1599998474121 s-3.6500000000000004,3.6500000000000004 -11,2.44 s-35.79,-51.87 -35.79,-51.87 l-31.65,-14.36 s-11.93,-9.74 -12.91,-12.91 S364.5699996948242,204.62999984741214 364.5699996948242,204.62999984741214 l-30,-21.92 z" fill="#fd6f8d" id="svg_59" class=""/><path d="M409.41999969482424,270.2899998474121 s29.55,-26.14 31,-28.08 c0.7200000000000006,-1 10.07,-8.05 19.33,-15 a263.23,263.23 0 0 0 32.25,-28.44 c6.67,-6.92 13.81,-13.83 16.27,-14.38 c5,-1.1400000000000001 17.69,-0.6500000000000008 20.29,3.73 s13.8,12.34 13.8,12.34 L551.9399996948242,211.1599998474121 s22.57,17.53 37.18,33.6 s31.81,33.44 38,34.09 s15.58,8.6 15.58,8.6 s13.31,6.5 18,11.69 s12.5,10.23 20.45,10.55 s-4.22,6.5 -17.37,5.68 s-29.21,-4.87 -34.9,-3.89 s-21.58,1.13 -21.58,-1.79 s1.62,-9.74 1.62,-9.74 S591.3899996948243,285.37999984741214 573.5699996948242,282.2999998474121 S516.7199996948242,250.1599998474121 517.0399996948242,236.68999984741208 c0,0 -5.51,-0.4900000000000003 -11.85,9.25 c0,0 -4.54,3.9 -12.17,14.77 S476.29999969482424,287.1599998474121 476.29999969482424,287.1599998474121 s-14.12,28.55 -25.48,28.32 s-23.54,-1.54 -23.54,-1.54 l-15.1,-10.71 l-1,-13 z" fill="#ffbec5" id="svg_60" class=""/><path d="M409.41999969482424,270.2899998474121 s29.55,-26.14 31,-28.08 c0.7200000000000006,-1 10.07,-8.05 19.33,-15 a263.23,263.23 0 0 0 32.25,-28.44 c6.67,-6.92 13.81,-13.83 16.27,-14.38 c5,-1.1400000000000001 17.69,-0.6500000000000008 20.29,3.73 s13.8,12.34 13.8,12.34 L551.9399996948242,211.1599998474121 s22.57,17.53 37.18,33.6 s31.81,33.44 38,34.09 s15.58,8.6 15.58,8.6 s13.31,6.5 18,11.69 s12.5,10.23 20.45,10.55 s-4.22,6.5 -17.37,5.68 s-29.21,-4.87 -34.9,-3.89 s-21.58,1.13 -21.58,-1.79 s1.62,-9.74 1.62,-9.74 S591.3899996948243,285.37999984741214 573.5699996948242,282.2999998474121 S516.7199996948242,250.1599998474121 517.0399996948242,236.68999984741208 c0,0 -5.51,-0.4900000000000003 -11.85,9.25 c0,0 -4.54,3.9 -12.17,14.77 S476.29999969482424,287.1599998474121 476.29999969482424,287.1599998474121 s-14.12,28.55 -25.48,28.32 s-23.54,-1.54 -23.54,-1.54 l-15.1,-10.71 l-1,-13 z" opacity="0.05" id="svg_61" class=""/><path d="M416.23999969482423,271.74999984741214 s29.54,-26.13 31,-28.08 s38.14,-28.9 38.14,-28.9 s24.67,-27.75 29.71,-28.89 s17.69,-0.6500000000000008 20.29,3.73 s13.79,12.34 13.79,12.34 l9.58,10.71 s22.56,17.53 37.17,33.6 s31.82,33.44 38,34.09 s15.58,8.61 15.58,8.61 s13.31,6.49 18,11.68 s12.5,10.23 20.45,10.55 s-4.22,6.5 -17.37,5.68 s-29.22,-4.86 -34.9,-3.89 S614.1099996948242,314.1599998474121 614.1099996948242,311.1599998474121 s1.6300000000000003,-9.74 1.6300000000000003,-9.74 s-17.53,-14.6 -35.39,-17.69 S523.5699996948242,251.6199998474121 523.8599996948242,238.1599998474121 c0,0 -5.52,-0.4900000000000003 -11.85,9.25 c0,0 -4.54,3.9 -12.17,14.77 s-16.72,26.46 -16.72,26.46 S468.9999996948242,317.1599998474121 457.6299996948242,316.9499998474121 s-23.53,-1.54 -23.53,-1.54 l-15.1,-10.71 l-1,-13 z" fill="#ffbec5" id="svg_62" class=""/><path d="M511.3199996948242,286.95999984741206 c-0.8,0.34000000000000047 -1.58,0.7500000000000007 -2.35,1.1600000000000001 l-5,2.67 a49.31,49.31 0 0 0 13.18,0.3900000000000004 c2.44,-0.26 5.87,-2.33 3.09,-4.78 C518.0299996948243,284.47999984741216 513.5699996948242,285.97999984741216 511.3199996948242,286.95999984741206 z" opacity="0.1" id="svg_63" class=""/><path d="M488.4699996948242,290.4199998474121 c2.71,-0.54 5.63,-1.07 8.16,0 a14,14 0 0 1 2.45,1.51 l4.34,3.13 a55.17,55.17 0 0 1 -11.47,2.1 a4.47,4.47 0 0 1 -1.55,-0.06000000000000006 a4.68,4.68 0 0 1 -1.77,-1.12 C485.23999969482423,293.1599998474121 482.9499996948242,291.5199998474121 488.4699996948242,290.4199998474121 z" opacity="0.1" id="svg_64" class=""/><path d="M319.16999969482424,128.7399998474121 a49.87,49.87 0 0 0 -7.11,10.67 a35.79,35.79 0 0 1 -34.14,-8.61 c1.07,-4.71 1.3,-9.19 0,-12.77 C272.7499996948242,103.4199998474121 319.16999969482424,128.7399998474121 319.16999969482424,128.7399998474121 z" opacity="0.1" id="svg_65" class=""/><circle cx="302.5799865722656" cy="104" r="35.709999084472656" fill="#ffbec5" id="svg_66" class=""/><polygon points="306.8800048828125,161.52999877929688 304.9700012207031,164.6099853515625 328.1600036621094,189.77999877929688 339.05999755859375,197.39999389648438 345.3599853515625,188.95001220703125 306.8800048828125,161.52999877929688 " fill="#504f88" id="svg_67" class=""/><path d="M342.5699996948242,188.5399998474121 s11.43,-1.44 16.71,7.32 a40.62,40.62 0 0 1 5.76,16.64 s5.27,4.22 4.79,6.58 a6.57,6.57 0 0 1 -2.6,3.73 s-10.23,-5.84 -10.31,-6.09 s-7.87,-8.85 -7.87,-8.85 L342.5699996948242,201.0599998474121 z" fill="#504f88" id="svg_68" class=""/><path d="M273.7199996948242,153.7399998474121 S255.86999969482423,155.1599998474121 254.0799996948242,167.6199998474121 s-2.43,19.56 3.9,28.16 s19.31,12.18 19.31,12.18 s19.64,15.42 19.81,24.83 s16.72,30.52 16.72,30.52 s31.51,23.37 29.23,30.84 s-2.94,28.73 5.34,30.68 s21.75,0.3200000000000004 23.7,2.7600000000000002 s34.09,-1.3 34.09,-1.3 s17.85,-4.06 29.7,-0.4900000000000003 A32.94,32.94 0 0 0 458.11999969482423,324.1599998474121 s13.8,-1.3 14.61,-6.82 s7,-5.35 1.1400000000000001,-6.33 s-9.58,2.11 -13.8,0.6500000000000008 s-7.79,-6.33 -17.53,-6.17 s-12,0.3300000000000004 -13,0.16000000000000023 s6.17,-5.68 2.27,-14.6 S420.4599996948242,275.1599998474121 420.78999969482425,270.1599998474121 s-14.61,-22.08 -14.61,-22.08 s-7.14,-10.38 -16.4,-13.79 s-26.62,-24.36 -26.62,-24.36 s-14.870000000000001,-23.15 -22.94,-24.39 s-34.52,-25 -34.52,-25 S283.2699996948242,151.2899998474121 273.7199996948242,153.7399998474121 z" opacity="0.1" id="svg_69" class=""/><path d="M273.23999969482423,154.70999984741212 S255.37999969482422,156.1599998474121 253.56999969482422,168.58999984741212 s-2.43,19.56 3.9,28.17 s19.32,12.17 19.32,12.17 s19.64,15.42 19.8,24.84 s16.72,30.51 16.72,30.51 S344.8399996948242,287.6599998474121 342.5699996948242,295.1599998474121 s-2.93,28.73 5.34,30.68 s21.76,0.3300000000000004 23.7,2.7600000000000002 s34.09,-1.3 34.09,-1.3 s17.86,-4.05 29.71,-0.4800000000000003 A32.87,32.87 0 0 0 457.6299996948242,325.1599998474121 s13.8,-1.3 14.61,-6.8100000000000005 s7,-5.36 1.1400000000000001,-6.33 s-9.58,2.11 -13.8,0.6400000000000008 s-7.79,-6.33 -17.53,-6.16 s-12,0.3200000000000004 -13,0.16000000000000023 s6.16,-5.68 2.27,-14.61 s-11.36,-15.91 -11,-20.94 s-14.61,-22.08 -14.61,-22.08 s-7.14,-10.38 -16.39,-13.79 s-26.62,-24.35 -26.62,-24.35 s-14.88,-23.15 -22.94,-24.4 s-34.53,-24.95 -34.53,-24.95 S282.7799996948242,152.25999984741213 273.23999969482423,154.70999984741212 z" fill="#fd6f8d" id="svg_70" class=""/><path d="M388.9499996948242,295.1599998474121 c-1.1,2.45 -1.34,5.6400000000000015 0.55,7.54 a11,11 0 0 0 4.08,2.1 c3.05,1.19 6,3.2800000000000002 7,6.4 a7.27,7.27 0 0 0 1,2.43 a4.74,4.74 0 0 0 1.84,1.23 a64.65,64.65 0 0 0 27.7,5.72 a21.68,21.68 0 0 0 -11.49,-5.76 c-3.44,-0.56 -7.08,-0.3000000000000003 -10.26,-1.73 s-5.3,-4.16 -7.38,-6.84 a9.58,9.58 0 0 1 -1.77,-3 c-0.7500000000000007,-2.41 0.45,-5.08 -0.24000000000000016,-7.5 c-0.4,-1.3900000000000001 -3.74,-6.36 -5.16,-6.67 C392.6499996948242,288.6499998474121 389.67999969482423,293.5299998474121 388.9499996948242,295.1599998474121 z" opacity="0.1" id="svg_71" class=""/><path d="M514.9599996948242,234.9099998474121 c2,-0.6500000000000008 12.17,-2.55 9.1,-6.41 C521.2599996948243,224.95999984741212 517.1299996948242,234.1599998474121 514.9599996948242,234.9099998474121 z" opacity="0.1" id="svg_72" class=""/><path d="M478.42999969482423,135.49999984741208 l17.27,-8.41 l-6,86.68 L471.5099996948242,210.1599998474121 l4.72,-71.43 A3.93,3.93 0 0 1 478.42999969482423,135.49999984741208 z" fill="#cbe3ff" id="svg_73" class=""/><path d="M495.6999996948242,127.08999984741212 h0 l-6,86.68 h0 a2.63,2.63 0 0 0 2.62,-2.43 L498.5699996948242,131.2899998474121 A4.07,4.07 0 0 0 495.6999996948242,127.08999984741212 z" fill="#c8bfca" id="svg_74" class=""/><path d="M471.5699996948242,209.6699998474121 l-54.8,40.28 a4,4 0 0 0 -0.6400000000000008,5.93 l5.36,6.1 L490.8299996948242,210.1599998474121 l-16.88,-1.21 A3.56,3.56 0 0 0 471.5699996948242,209.6699998474121 z" fill="#f1f1f2" id="svg_75" class=""/><polygon points="470.1600036621094,213.760009765625 433.25,239.60000610351562 438.3900146484375,245.17001342773438 481.45001220703125,214.52999877929688 470.1600036621094,213.760009765625 " fill="#7e7a98" id="svg_76" class=""/><path d="M421.5099996948242,261.97999984741216 h0 L490.8299996948242,210.1599998474121 h0 a5.48,5.48 0 0 1 -1.6600000000000001,6.76 l-60.89,45.67 A5.05,5.05 0 0 1 421.5099996948242,261.97999984741216 z" fill="#c8bfca" id="svg_77" class=""/><path d="M409.5699996948242,248.0499998474121 S433.7699996948242,199.1599998474121 448.0599996948242,217.8599998474121 s-21.92,39 -21.92,39 z" fill="#ffbec5" id="svg_78" class=""/><path d="M280.5699996948242,167.70999984741212 a28.93,28.93 0 0 0 -20.4,19.61 c-1.57,5.37 -1.46,11.26 3.8600000000000003,15.2 c12.18,9 29.38,15.34 37.34,30.11 A104.28,104.28 0 0 1 311.5699996948242,263.3899998474121 l20.62,30.43 s3.13,9.74 24,2.12 s32.28,-11.53 32.28,-11.53 s16.18,-8.68 23.41,-11.85 a13.11,13.11 0 0 1 3.22,-1.1400000000000001 c2.43,0 19.83,-14.89 20.63,-16.94 s-17.59,-10.57 -24.94,-8.72 c0,0 -1.05,4.4 -14.85,3.75 s-19,5.2 -19,5.2 s-6.82,-2.44 -11.2,-2.2 s-12.33,-4 -18.26,-3.49 c0,0 3,-6 -0.8900000000000008,-11 s-7.47,-4.55 -9.09,-10.47 c-0.93,-3.38 -4,-14.13 -6.49,-22.77 a62.67,62.67 0 0 0 -18.64,-29.79 c-5.82,-5.13 -12.74,-9.3 -19.68,-9.05 A54.52,54.52 0 0 0 280.5699996948242,167.70999984741212 z" opacity="0.1" id="svg_79" class=""/><path d="M280.9999996948242,165.26999984741212 A29,29 0 0 0 260.5699996948242,184.88999984741213 c-1.56,5.37 -1.46,11.25 3.87,15.19 c12.17,9 29.38,15.34 37.33,30.11 a104.22,104.22 0 0 1 10.23,30.76 l20.62,30.44 s3.12,9.74 24,2.11 s32.28,-11.52 32.28,-11.52 s16.18,-8.69 23.4,-11.85 a12.8,12.8 0 0 1 3.22,-1.1400000000000001 c2.44,0 19.84,-14.89 20.63,-16.94 s-17.58,-10.57 -24.93,-8.72 c0,0 -1.05,4.4 -14.85,3.75 s-19,5.19 -19,5.19 s-6.82,-2.43 -11.2,-2.19 s-12.34,-4 -18.26,-3.49 c0,0 3,-6 -0.9,-11 s-7.46,-4.54 -9.09,-10.47 c-0.92,-3.37 -4,-14.12 -6.48,-22.77 a62.72,62.72 0 0 0 -18.64,-29.79 c-5.83,-5.13 -12.74,-9.3 -19.68,-9 A54.17,54.17 0 0 0 280.9999996948242,165.26999984741212 z" opacity="0.1" id="svg_80" class=""/><path d="M280.5699996948242,166.24999984741208 a28.93,28.93 0 0 0 -20.4,19.61 c-1.57,5.37 -1.46,11.26 3.8600000000000003,15.2 c12.18,9 29.38,15.34 37.34,30.11 A104.28,104.28 0 0 1 311.5699996948242,261.9299998474121 l20.62,30.43 s3.13,9.74 24,2.11 s32.28,-11.52 32.28,-11.52 s16.18,-8.69 23.41,-11.85 a12.67,12.67 0 0 1 3.22,-1.1400000000000001 c2.43,0 19.83,-14.89 20.63,-16.94 s-17.59,-10.57 -24.94,-8.72 c0,0 -1.05,4.4 -14.85,3.75 s-19,5.19 -19,5.19 s-6.82,-2.43 -11.2,-2.19 s-12.33,-4 -18.26,-3.49 c0,0 3,-6 -0.8900000000000008,-11 s-7.47,-4.54 -9.09,-10.46 c-0.93,-3.38 -4,-14.13 -6.49,-22.78 a62.64,62.64 0 0 0 -18.64,-29.78 c-5.82,-5.14 -12.74,-9.3 -19.68,-9 A54.52,54.52 0 0 0 280.5699996948242,166.24999984741208 z" fill="#fd6f8d" id="svg_81" class=""/><path d="M344.5699996948242,90.92999984741209 c3.55,-1.24 6.78,-4.12 7.33,-7.84 a11.54,11.54 0 0 0 -1.6700000000000008,-7.12 c-4.44,-8 -13.39,-12.26 -22,-15.24 s-17.63,-5.21 -26.72,-4.7 s-18.3,4 -24.18,11 a19.82,19.82 0 0 1 -3.64,3.84 c-2.09,1.4300000000000002 -4.76,1.6600000000000001 -7.29,1.57 c-8.34,-0.31000000000000033 -17.05,-3.6100000000000003 -24.74,-0.37000000000000033 c-9.24,3.88 -12.48,15.21 -13.68,25.17 c-1.24,10.24 -1.54,20.67 -4.25,30.63 s-8.27,19.69 -17.33,24.63 c-2.6500000000000004,1.44 -5.54,2.45 -8,4.15 s-4.61,4.35 -4.62,7.37 c0,4.11 3.68,7.13 5.6,10.76 c1.4,2.6500000000000004 1.94,5.82 4.05,7.94 c4.19,4.24 11.620000000000001,1.84 17,4.42 c4.78,2.3 6.84,7.93 10.6,11.68 c4.42,4.41 10.94,5.95 17.16,6.38 c3.41,0.23 6.94,0.17 10.08,-1.1600000000000001 c6.26,-2.6500000000000004 9.58,-9.8 9.95,-16.58 s-1.58,-13.44 -3,-20.09 c-0.4700000000000003,-2.19 -0.8700000000000007,-4.53 0,-6.62 a10,10 0 0 1 3.35,-4 c7.39,-5.84 17.92,-8.51 22.16,-16.92 c2.85,-5.65 2,-12.36 2.68,-18.65 c0.26,-2.29 0.8300000000000006,-4.72 2.5300000000000002,-6.29 c2.08,-1.9100000000000001 5.19,-2 8,-2.25 a40.3,40.3 0 0 0 22.5,-9.77 c3.06,-2.67 4.91,-6 7.57,-8.91 S340.97999969482424,92.15999984741211 344.5699996948242,90.92999984741209 z" opacity="0.1" id="svg_82" class=""/><path d="M343.5699996948242,89.95999984741212 c3.55,-1.25 6.78,-4.13 7.33,-7.85 a11.54,11.54 0 0 0 -1.6800000000000006,-7.11 c-4.43,-8 -13.39,-12.26 -22,-15.25 s-17.64,-5.2 -26.72,-4.69 s-18.3,4 -24.19,11 a19.77,19.77 0 0 1 -3.63,3.84 c-2.09,1.4300000000000002 -4.76,1.6700000000000008 -7.29,1.57 c-8.34,-0.3000000000000003 -17.05,-3.6 -24.75,-0.37000000000000033 c-9.24,3.89 -12.48,15.22 -13.68,25.17 c-1.23,10.25 -1.53,20.67 -4.24,30.63 s-8.28,19.7 -17.34,24.63 c-2.6500000000000004,1.45 -5.54,2.45 -8,4.16 s-4.61,4.35 -4.61,7.36 c0,4.11 3.68,7.14 5.6,10.77 c1.3900000000000001,2.64 1.94,5.82 4,7.94 c4.2,4.23 11.63,1.83 17,4.42 c4.79,2.3 6.85,7.93 10.61,11.68 c4.41,4.4 10.93,5.95 17.16,6.37 c3.4,0.24000000000000016 6.94,0.17 10.08,-1.1600000000000001 c6.26,-2.6500000000000004 9.58,-9.79 9.95,-16.57 s-1.59,-13.45 -3,-20.09 c-0.46,-2.19 -0.8600000000000007,-4.53 -0.05000000000000006,-6.62 a10.1,10.1 0 0 1 3.36,-4 c7.38,-5.83 17.91,-8.5 22.15,-16.91 c2.85,-5.65 2,-12.36 2.6900000000000004,-18.65 c0.26,-2.3 0.8300000000000006,-4.73 2.52,-6.29 c2.09,-1.92 5.2,-2 8,-2.25 a40.41,40.41 0 0 0 22.51,-9.78 c3.06,-2.66 4.9,-6 7.57,-8.91 S340.0099996948242,91.21999984741211 343.5699996948242,89.95999984741212 z" fill="#ffe2da" id="svg_83" class=""/><g opacity="0.1" id="svg_84" class=""><path d="M216.9599996948242,183.2199998474121 c-5,-2.4 -11.8,-0.4800000000000003 -16.1,-3.64 a9.25,9.25 0 0 0 1.53,2.15 c4.2,4.23 11.63,1.83 17,4.42 a11.5,11.5 0 0 1 3.26,2.38 A15.88,15.88 0 0 0 216.9599996948242,183.2199998474121 z" id="svg_85"/><path d="M349.2499996948242,74.99999984741208 A23,23 0 0 0 345.5699996948242,70.05999984741209 a21,21 0 0 1 1.29,2 a11.51,11.51 0 0 1 1.6700000000000008,7.11 c-0.55,3.72 -3.7800000000000002,6.6 -7.33,7.85 s-8,0.07 -10.65,3 s-4.52,6.25 -7.58,8.91 a40.39,40.39 0 0 1 -22.5,9.78 c-2.8200000000000003,0.26 -5.93,0.3300000000000004 -8,2.25 c-1.7000000000000002,1.56 -2.27,4 -2.52,6.29 c-0.7200000000000006,6.28 0.16000000000000023,13 -2.6900000000000004,18.65 c-4.24,8.4 -14.77,11.07 -22.16,16.91 a10.09,10.09 0 0 0 -3.35,4 c-0.8200000000000006,2.08 -0.4200000000000003,4.43 0.05000000000000006,6.62 c1.42,6.6400000000000015 3.38,13.3 3,20.09 s-3.7,13.92 -9.95,16.57 c-3.15,1.33 -6.68,1.3900000000000001 -10.09,1.1600000000000001 c-6.22,-0.4200000000000003 -12.74,-2 -17.16,-6.37 l-0.06000000000000006,-0.07 a24,24 0 0 0 2.5,3 c4.41,4.4 10.93,5.95 17.16,6.37 c3.4,0.24000000000000016 6.94,0.17 10.08,-1.1600000000000001 c6.26,-2.6500000000000004 9.58,-9.79 9.95,-16.57 s-1.59,-13.45 -3,-20.09 c-0.46,-2.19 -0.8600000000000007,-4.53 -0.05000000000000006,-6.62 a10.1,10.1 0 0 1 3.36,-4 c7.38,-5.83 17.91,-8.5 22.15,-16.91 c2.85,-5.65 2,-12.36 2.6900000000000004,-18.65 c0.26,-2.3 0.8300000000000006,-4.73 2.5300000000000002,-6.29 c2.08,-1.92 5.19,-2 8,-2.25 a40.41,40.41 0 0 0 22.51,-9.78 c3.06,-2.66 4.9,-6 7.57,-8.91 s7.07,-1.73 10.66,-3 s6.78,-4.13 7.33,-7.85 A11.54,11.54 0 0 0 349.2499996948242,74.99999984741208 z" id="svg_86"/></g><path d="M139.43999969482422,336.0599998474121 s7.13,9.33 -3.29,23.41 s-19,26 -15.56,34.76 c0,0 15.74,-26.16 28.54,-26.52 S153.56999969482422,351.7899998474121 139.43999969482422,336.0599998474121 z" fill="#71c55d" id="svg_89" class=""/><path d="M139.43999969482422,336.0599998474121 a11.49,11.49 0 0 1 1.46,2.92 c12.49,14.68 19.15,28.38 7.14,28.73 c-11.19,0.3200000000000004 -24.61,20.32 -27.83,25.37 c0.11000000000000008,0.3900000000000004 0.24000000000000016,0.78 0.38000000000000034,1.15 c0,0 15.74,-26.16 28.54,-26.52 S153.56999969482422,351.7899998474121 139.43999969482422,336.0599998474121 z" opacity="0.1" id="svg_90" class=""/><path d="M152.6999996948242,347.9499998474121 c0,3.2800000000000002 -0.37000000000000033,5.94 -0.8200000000000006,5.94 s-0.8200000000000006,-2.66 -0.8200000000000006,-5.94 s0.46,-1.7400000000000002 0.91,-1.7400000000000002 S152.6999996948242,344.6599998474121 152.6999996948242,347.9499998474121 z" fill="#ffd037" id="svg_91" class=""/><path d="M157.24999969482423,351.86999984741215 c-2.88,1.57 -5.39,2.52 -5.61,2.12 s1.94,-2 4.83,-3.5700000000000003 s1.7400000000000002,-0.4200000000000003 2,0 S160.1399996948242,350.2999998474121 157.24999969482423,351.86999984741215 z" fill="#ffd037" id="svg_92" class=""/><path d="M101.74999969482423,336.0599998474121 s-7.13,9.33 3.29,23.41 s19,26 15.55,34.76 c0,0 -15.73,-26.16 -28.54,-26.52 S87.65999969482422,351.7899998474121 101.74999969482423,336.0599998474121 z" fill="#71c55d" id="svg_93" class=""/><path d="M101.74999969482423,336.0599998474121 a11.49,11.49 0 0 0 -1.46,2.92 c-12.49,14.68 -19.15,28.38 -7.14,28.73 c11.19,0.3200000000000004 24.61,20.32 27.82,25.37 a9.11,9.11 0 0 1 -0.38000000000000034,1.15 s-15.73,-26.16 -28.54,-26.52 S87.65999969482422,351.7899998474121 101.74999969482423,336.0599998474121 z" opacity="0.1" id="svg_94" class=""/><path d="M88.48999969482422,347.9499998474121 c0,3.2800000000000002 0.37000000000000033,5.94 0.8200000000000006,5.94 s0.8200000000000006,-2.66 0.8200000000000006,-5.94 s-0.46,-1.7400000000000002 -0.91,-1.7400000000000002 S88.48999969482422,344.6599998474121 88.48999969482422,347.9499998474121 z" fill="#ffd037" id="svg_95" class=""/><path d="M83.93999969482422,351.86999984741215 c2.88,1.57 5.39,2.52 5.61,2.12 s-1.94,-2 -4.83,-3.5700000000000003 s-1.7400000000000002,-0.4200000000000003 -2,0 S81.04999969482422,350.2999998474121 83.93999969482422,351.86999984741215 z" fill="#ffd037" id="svg_96" class=""/><ellipse cx="120.5999984741211" cy="454.15997314453125" rx="74.5999984741211" ry="11.449999809265137" fill="#71c55d" opacity="0.1" id="svg_97" class=""/><path d="M158.9899996948242,381.6599998474121 l-0.3600000000000003,2.91 l-0.5,4.12 l-0.21000000000000016,1.71 l-0.5,4.12 l-0.21000000000000016,1.7200000000000002 l-0.5,4.11 L150.99999969482423,447.1599998474121 c-0.51,4.18 -7.34,7.43 -15.57,7.43 H105.75999969482422 c-8.24,0 -15,-3.25 -15.56,-7.43 l-5.72,-46.8 l-0.5,-4.11 l-0.21000000000000016,-1.7200000000000002 l-0.51,-4.12 l-0.2,-1.71 l-0.5,-4.12 l-0.3600000000000003,-2.91 c-0.2900000000000003,-2.36 3.4,-4.36 8.07,-4.36 h60.66 C155.56999969482422,377.2999998474121 159.27999969482423,379.2999998474121 158.9899996948242,381.6599998474121 z" fill="#65617d" id="svg_98" class=""/><polygon points="158.63999938964844,384.57000732421875 158.13999938964844,388.67999267578125 83.06000518798828,388.67999267578125 82.55999755859375,384.57000732421875 158.63999938964844,384.57000732421875 " fill="#9d9cb5" id="svg_99" class=""/><polygon points="157.9300079345703,390.4000244140625 157.42999267578125,394.52001953125 83.77999877929688,394.52001953125 83.27000427246094,390.4000244140625 157.9300079345703,390.4000244140625 " fill="#9d9cb5" id="svg_100" class=""/><polygon points="157.20999145507812,396.22998046875 156.70999145507812,400.3499755859375 84.4800033569336,400.3499755859375 83.97999572753906,396.22998046875 157.20999145507812,396.22998046875 " fill="#9d9cb5" id="svg_101" class=""/></g></svg>